<svg id="SvgjsSvg1001" width="70.83899688720703" height="80.00100708007812" xmlns="http://www.w3.org/2000/svg" version="1.1" xmlns:xlink="http://www.w3.org/1999/xlink" xmlns:svgjs="http://svgjs.com/svgjs" viewBox="0 0 70.83899688720703 80.00100708007812"><defs id="SvgjsDefs1002"></defs><rect id="SvgjsRect1008" width="70.83899688720703" height="80.00100708007812" fill="transparent"></rect><g id="SvgjsG1009" transform="matrix(1,0,0,1,-44.499000549316406,-42.50199890136719)"><path id="color_2" d="m79.918,42.502c-3.201,0-5.806,2.605-5.806,5.806,0,2.56,1.675,4.712,3.978,5.483v7.637h3.658v-7.637c2.303-.771,3.978-2.923,3.978-5.483,0-3.201-2.605-5.806-5.807-5.806Zm0,7.957c-1.185,0-2.149-.965-2.149-2.151s.964-2.149,2.149-2.149,2.151.964,2.151,2.149-.965,2.151-2.151,2.151Zm1.829,60.755v-7.637h-3.658v7.637c-2.303.771-3.978,2.923-3.978,5.483,0,3.201,2.605,5.806,5.806,5.806s5.807-2.605,5.807-5.806c0-2.56-1.675-4.712-3.978-5.483Zm-1.829,7.632c-1.185,0-2.149-.964-2.149-2.149s.964-2.149,2.149-2.149,2.151.964,2.151,2.149-.965,2.149-2.151,2.149Zm29.614-42.149c-3.202,0-5.806,2.605-5.806,5.806s2.603,5.807,5.806,5.807,5.806-2.606,5.806-5.807-2.605-5.806-5.806-5.806Zm0,7.955c-1.185,0-2.149-.964-2.149-2.149s.964-2.149,2.149-2.149,2.149.964,2.149,2.149-.964,2.149-2.149,2.149Zm-59.226-7.955c-3.201,0-5.806,2.605-5.806,5.806s2.605,5.807,5.806,5.807,5.806-2.606,5.806-5.807-2.605-5.806-5.806-5.806Zm0,7.955c-1.185,0-2.149-.964-2.149-2.149s.964-2.149,2.149-2.149,2.149.964,2.149,2.149-.964,2.149-2.149,2.149Z" fill="#ff5d23"></path><path id="color_1" d="m65.112,62.663c1.475,0,2.81-.572,3.835-1.482l5.277,3.048c-.078.38-.12.773-.12,1.176,0,3.206,2.609,5.814,5.814,5.814s5.814-2.608,5.814-5.814c0-.402-.041-.796-.119-1.176l5.277-3.048c1.026.911,2.36,1.482,3.835,1.482,3.201,0,5.806-2.605,5.806-5.807s-2.605-5.806-5.806-5.806-5.806,2.605-5.806,5.806c0,.402.041.793.119,1.172l-5.278,3.048c-1.027-.912-2.363-1.485-3.842-1.485s-2.814.573-3.842,1.485l-5.277-3.046c.078-.379.119-.771.119-1.173,0-3.201-2.605-5.806-5.806-5.806s-5.807,2.605-5.807,5.806,2.605,5.807,5.807,5.807Zm29.612-7.957c1.185,0,2.149.964,2.149,2.149s-.964,2.151-2.149,2.151-2.149-.965-2.149-2.151.964-2.149,2.149-2.149Zm-14.807,8.54c1.191,0,2.158.968,2.158,2.158s-.967,2.158-2.158,2.158-2.158-.968-2.158-2.158.968-2.158,2.158-2.158Zm-14.805-8.54c1.185,0,2.149.964,2.149,2.149s-.964,2.151-2.149,2.151-2.149-.965-2.149-2.151.964-2.149,2.149-2.149Zm29.612,47.635c-1.475,0-2.81.57-3.834,1.479l-5.278-3.046c.078-.38.119-.773.119-1.176,0-3.206-2.608-5.814-5.814-5.814s-5.814,2.608-5.814,5.814c0,.403.042.796.12,1.176l-5.278,3.046c-1.026-.909-2.359-1.479-3.834-1.479-3.202,0-5.807,2.605-5.807,5.806s2.605,5.806,5.807,5.806,5.806-2.605,5.806-5.806c0-.402-.041-.793-.119-1.172l5.277-3.048c1.027.913,2.364,1.485,3.842,1.485s2.817-.572,3.844-1.485l5.277,3.048c-.078.379-.119.77-.119,1.172,0,3.201,2.605,5.806,5.806,5.806s5.806-2.605,5.806-5.806-2.605-5.806-5.806-5.806Zm-29.612,7.955c-1.185,0-2.149-.964-2.149-2.149s.964-2.149,2.149-2.149,2.149.964,2.149,2.149-.964,2.149-2.149,2.149Zm14.805-8.54c-1.19,0-2.158-.968-2.158-2.158s.968-2.158,2.158-2.158,2.158.968,2.158,2.158-.967,2.158-2.158,2.158Zm14.807,8.54c-1.185,0-2.149-.964-2.149-2.149s.964-2.149,2.149-2.149,2.149.964,2.149,2.149-.964,2.149-2.149,2.149Zm14.807-16.504c-1.477,0-2.81.57-3.835,1.481l-5.278-3.048c.079-.38.12-.773.12-1.176,0-3.206-2.608-5.814-5.814-5.814-1.478,0-2.815.572-3.842,1.484l-5.323-3.074c.078-.38.119-.773.119-1.176,0-.399-.041-.79-.118-1.168l5.292-3.044c1.031.927,2.381,1.508,3.872,1.508,3.206,0,5.814-2.608,5.814-5.814,0-.409-.045-.808-.126-1.195l5.275-3.034c1.027.913,2.364,1.488,3.844,1.488,3.201,0,5.806-2.605,5.806-5.807s-2.605-5.806-5.806-5.806-5.806,2.605-5.806,5.806c0,.398.04.788.118,1.164l-5.292,3.042c-1.026-.904-2.356-1.471-3.827-1.471-3.206,0-5.814,2.609-5.814,5.814,0,.39.041.77.115,1.139l-5.311,3.056c-1.028-.917-2.368-1.492-3.85-1.492s-2.815.573-3.842,1.485l-5.216-3.012c.079-.38.12-.773.12-1.176,0-3.205-2.609-5.814-5.814-5.814-1.479,0-2.815.572-3.842,1.484l-5.278-3.046c.078-.379.119-.77.119-1.172,0-3.201-2.605-5.806-5.806-5.806s-5.806,2.605-5.806,5.806,2.605,5.807,5.806,5.807c1.477,0,2.81-.572,3.835-1.482l5.278,3.048c-.079.38-.12.773-.12,1.176,0,3.206,2.608,5.814,5.814,5.814,1.478,0,2.815-.572,3.842-1.484l5.216,3.011c-.079.38-.12.774-.12,1.176,0,.407.044.803.123,1.187l-5.248,3.04c-1.024-.897-2.349-1.46-3.813-1.46-3.206,0-5.814,2.608-5.814,5.814,0,.397.041.783.116,1.158l-5.282,3.059c-1.024-.907-2.355-1.474-3.827-1.474-3.201,0-5.806,2.605-5.806,5.806s2.605,5.806,5.806,5.806,5.806-2.605,5.806-5.806c0-.405-.042-.8-.122-1.181l5.264-3.051c1.03.92,2.372,1.497,3.859,1.497,3.205,0,5.814-2.608,5.814-5.814,0-.416-.048-.82-.131-1.211l5.234-3.033c1.026.909,2.36,1.478,3.835,1.478s2.815-.572,3.842-1.484l5.324,3.074c-.078.38-.12.773-.12,1.176,0,3.206,2.608,5.814,5.814,5.814,1.478,0,2.815-.572,3.842-1.484l5.278,3.046c-.078.379-.119.771-.119,1.172,0,3.201,2.603,5.806,5.806,5.806s5.806-2.605,5.806-5.806-2.605-5.806-5.806-5.806Zm0-30.538c1.185,0,2.149.964,2.149,2.149s-.964,2.151-2.149,2.151-2.149-.965-2.149-2.151.964-2.149,2.149-2.149Zm-14.807,8.54c1.19,0,2.158.968,2.158,2.158s-.968,2.158-2.158,2.158-2.158-.968-2.158-2.158.968-2.158,2.158-2.158Zm-44.419-4.24c-1.185,0-2.149-.965-2.149-2.151s.964-2.149,2.149-2.149,2.149.964,2.149,2.149-.964,2.151-2.149,2.151Zm14.807,8.555c-1.19,0-2.158-.968-2.158-2.158s.968-2.158,2.158-2.158,2.158.968,2.158,2.158-.968,2.158-2.158,2.158Zm-14.807,25.638c-1.185,0-2.149-.964-2.149-2.149s.964-2.149,2.149-2.149,2.149.964,2.149,2.149-.964,2.149-2.149,2.149Zm14.807-8.54c-1.19,0-2.158-.968-2.158-2.158s.968-2.158,2.158-2.158,2.158.968,2.158,2.158-.968,2.158-2.158,2.158Zm14.752-8.58c-1.19,0-2.158-.968-2.158-2.158s.968-2.158,2.158-2.158,2.158.968,2.158,2.158-.968,2.158-2.158,2.158Zm14.86,8.58c-1.19,0-2.158-.968-2.158-2.158s.968-2.158,2.158-2.158,2.158.968,2.158,2.158-.968,2.158-2.158,2.158Zm14.807,8.54c-1.185,0-2.149-.964-2.149-2.149s.964-2.149,2.149-2.149,2.149.964,2.149,2.149-.964,2.149-2.149,2.149Z" fill="#000000"></path></g></svg>